<svg xmlns="http://www.w3.org/2000/svg" id="Layer_1" width="100" height="100" data-name="Layer 1" viewBox="0 0 100 100"><defs><style>.cls-1{fill:#570d61}.cls-2{fill:#fff}</style></defs><path d="M29,10A12,12,0,0,0,17,22V77.83a12,12,0,0,0,12,12H70.43a12,12,0,0,0,12-12V22a12,12,0,0,0-12-12Z" class="cls-1"/><path d="M50.77,59.75c.06-.06.18,0,.29,0a11.05,11.05,0,0,1,2.3,0c1.61.12,3.22.09,4.82.28a3.35,3.35,0,0,0,1.18,0,2.45,2.45,0,0,0,1.69-1.8,1.17,1.17,0,0,0-.11-1,2.5,2.5,0,0,0-1.56-1.15,19.92,19.92,0,0,0-5.07-.9,8.69,8.69,0,0,1-4-1,11,11,0,0,0-3.67-1.3,19.87,19.87,0,0,0-8.89.88.69.69,0,0,0-.53.73v6.86c0,.53.26.88.72.9a8.7,8.7,0,0,1,3.19.93c2.51,1.17,5,2.43,7.52,3.54a5.93,5.93,0,0,0,3.12.71c.67-.08,1.35-.14,2-.24,1.75-.26,3.5-.56,5.25-.8a6.49,6.49,0,0,0,3-.91c1.06-.74,2.14-1.45,3.21-2.17a12,12,0,0,0,1.36-1.11,1.87,1.87,0,0,0,.6-1.15c0-.25,0-.49-.27-.58s-.29-.23-.08-.45a1,1,0,0,0-.32-1.74A2.26,2.26,0,0,0,65.27,58a4.81,4.81,0,0,0-3,1.42,5.35,5.35,0,0,1-2.6,1.35c-.78.18-1.57.22-2.36.33a10.27,10.27,0,0,1-6.58-1.33" class="cls-2"/><path d="M36.22,57.94h0V52.87c0-.61-.26-.86-.87-.86H33a.73.73,0,0,0-.83.81V63c0,.56.25.82.81.82h2.34c.62,0,.86-.24.86-.87v-5" class="cls-2"/><path d="M66.61,40.37A11.64,11.64,0,1,0,46.76,51.66a.85.85,0,0,0,.51.31,11,11,0,0,1,3.34,1.21,8.36,8.36,0,0,0,3.78,1,23.49,23.49,0,0,1,4.85.79.6.6,0,0,0,.4,0,11.66,11.66,0,0,0,7-14.58Zm-11,12.87a9.54,9.54,0,1,1,9.54-9.53,9.55,9.55,0,0,1-9.54,9.53Z" class="cls-2"/><path d="M55.57,34.92a8.79,8.79,0,1,0,8.79,8.79,8.8,8.8,0,0,0-8.79-8.79Zm4.77,10.81H50.8a.69.69,0,0,1,0-1.38h9.54a.69.69,0,0,1,0,1.38Zm0-2.67H50.8a.69.69,0,0,1,0-1.38h9.54a.69.69,0,1,1,0,1.38Z" class="cls-2"/></svg>