<svg viewBox="0 0 100 100" xmlns="http://www.w3.org/2000/svg" data-name="Layer 1" id="Layer_1" width="100" height="100"><defs><style>.cls-1{fill:#570d61;}.cls-2{fill:#fff;}</style></defs><path d="M29,10A12,12,0,0,0,17,22V77.83a12,12,0,0,0,12,12H70.43a12,12,0,0,0,12-12V22a12,12,0,0,0-12-12Z" class="cls-1"></path><path d="M66.12,65.23H33.31a1.09,1.09,0,1,0,0,2.18H66.12a1.09,1.09,0,0,0,0-2.18Z" class="cls-2"></path><path d="M36.22,63.77h27a1.1,1.1,0,1,0,0-2.19h-27a1.1,1.1,0,0,0,0,2.19Z" class="cls-2"></path><polygon points="42.42 60.12 42.42 44.81 39.51 44.81 39.51 60.12 42.42 60.12 42.42 60.12" class="cls-2"></polygon><polygon points="48.26 60.12 48.26 44.81 45.34 44.81 45.34 60.12 48.26 60.12 48.26 60.12" class="cls-2"></polygon><polygon points="54.09 60.12 54.09 44.81 51.17 44.81 51.17 60.12 54.09 60.12 54.09 60.12" class="cls-2"></polygon><polygon points="59.92 60.12 59.92 44.81 57.01 44.81 57.01 60.12 59.92 60.12 59.92 60.12" class="cls-2"></polygon><path d="M38.05,43.35H61.38a1.46,1.46,0,0,0,0-2.92H50.44V38.25H57V33.87H50.44v-.36a1.09,1.09,0,1,0-2.18,0v6.92H38.05a1.46,1.46,0,1,0,0,2.92Z" class="cls-2"></path></svg>
