<svg xmlns="http://www.w3.org/2000/svg" id="Layer_1" width="100" height="100" data-name="Layer 1" viewBox="0 0 100 100"><defs><style>.cls-1{fill:#570d61}.cls-2{fill:#fff}</style></defs><path d="M29,10A12,12,0,0,0,17,22V77.83a12,12,0,0,0,12,12H70.43a12,12,0,0,0,12-12V22a12,12,0,0,0-12-12Z" class="cls-1"/><path d="M52.63,53.92V42.85a3.77,3.77,0,0,1,1.47,2.48,1.1,1.1,0,0,0,1.08.94h.16A1.11,1.11,0,0,0,56.27,45a6.39,6.39,0,0,0-6.56-5.31A6.39,6.39,0,0,0,43.16,45a1.1,1.1,0,0,0,2.17.31,3.77,3.77,0,0,1,1.47-2.48V53.92a1.09,1.09,0,1,0,2.18,0V48.46h1.46v5.46a1.1,1.1,0,1,0,2.19,0Z" class="cls-2"/><path d="M49.71,38.25a2.92,2.92,0,1,0-2.91-2.92,2.92,2.92,0,0,0,2.91,2.92Z" class="cls-2"/><path d="M40.64,51.1a1.49,1.49,0,0,0-2.15,0,1.56,1.56,0,0,0,0,2.18l2.77,2.66a.91.91,0,0,1,0,1.28.88.88,0,0,1-1.25,0l-3.42-3.66V41.89a2.19,2.19,0,0,0-4.38,0V54.58a2.2,2.2,0,0,0,.64,1.55L41,64.5v2.91h6.57V60.12a4.67,4.67,0,0,0-1.34-3.54L40.64,51.1Z" class="cls-2"/><path d="M65,39.71a2.19,2.19,0,0,0-2.19,2.18V53.56l-3.42,3.66a.88.88,0,0,1-1.25,0,.91.91,0,0,1,0-1.28l2.77-2.66a1.56,1.56,0,0,0,0-2.18,1.49,1.49,0,0,0-2.15,0l-5.55,5.48a4.67,4.67,0,0,0-1.34,3.54v7.29h6.56V64.5l8.12-8.37a2.19,2.19,0,0,0,.63-1.55V41.89A2.19,2.19,0,0,0,65,39.71Z" class="cls-2"/></svg>