<svg xmlns="http://www.w3.org/2000/svg" id="Layer_1" width="100" height="100" data-name="Layer 1" viewBox="0 0 100 100"><defs><style>.cls-1{fill:#570d61}.cls-2{fill:#fff}</style></defs><path d="M29,10A12,12,0,0,0,17,22V77.83a12,12,0,0,0,12,12H70.43a12,12,0,0,0,12-12V22a12,12,0,0,0-12-12Z" class="cls-1"/><path d="M38.32,57.06,33.09,62.3a3,3,0,0,0,4.24,4.24l5.24-5.24a17.47,17.47,0,0,1-4.25-4.24Z" class="cls-2"/><path d="M48.26,47H45.34a.73.73,0,0,0-.73.73v3.6a9.13,9.13,0,0,0,4.37,4V47.73a.73.73,0,0,0-.72-.73Z" class="cls-2"/><path d="M59.92,42.62H57a.73.73,0,0,0-.73.73v12a9.13,9.13,0,0,0,4.37-4v-8a.73.73,0,0,0-.73-.73Z" class="cls-2"/><path d="M54.09,44.81H51.17a.73.73,0,0,0-.73.73V55.85a9.35,9.35,0,0,0,4.38,0V45.54a.73.73,0,0,0-.73-.73Z" class="cls-2"/><path d="M52.63,32.41A14.59,14.59,0,1,0,67.21,47,14.58,14.58,0,0,0,52.63,32.41Zm8,22a10.8,10.8,0,0,1-4.37,2.89,12.15,12.15,0,0,1-1.46.41,11.52,11.52,0,0,1-4.38,0A12.15,12.15,0,0,1,49,57.31,11,11,0,0,1,41.69,47a10.94,10.94,0,1,1,19,7.42Z" class="cls-2"/></svg>