<svg xmlns="http://www.w3.org/2000/svg" id="Layer_1" width="100" height="100" data-name="Layer 1" viewBox="0 0 100 100"><defs><style>.cls-1{fill:#570d61}.cls-2{fill:#fff}</style></defs><path d="M29,10A12,12,0,0,0,17,22V77.83a12,12,0,0,0,12,12H70.43a12,12,0,0,0,12-12V22a12,12,0,0,0-12-12Z" class="cls-1"/><path d="M51.3,41.86a.78.78,0,0,1,0,1.11l-4.89,4.89a.79.79,0,0,1-1.11,0,.81.81,0,0,1,0-1.13l4.9-4.88a.78.78,0,0,1,1.11,0Zm2.33,14.33a.79.79,0,0,0,1.11,0l4.89-4.89a.79.79,0,0,0-1.11-1.12l-4.89,4.88a.79.79,0,0,0,0,1.12ZM65.35,42V65.38H40V65l-2.25,2.4-3.63-3.63L40,58.28V32.41H56.1L65.35,42Zm-8.82-.78h4.36l-4.36-4.52v4.52Zm6.15,2H54.53V35.09H42.63V55.77l6-5.58L46.81,48.4l5-5,6.28,6.29-5,5-1.8-1.8-8.67,9.27v.56h20V43.24Z" class="cls-2"/></svg>