<svg viewBox="0 0 100 100" xmlns="http://www.w3.org/2000/svg" data-name="Layer 1" id="Layer_1" width="100" height="100"><defs><style>.cls-1{fill:#570d61;}.cls-2{fill:#fff;}</style></defs><path d="M29,10A12,12,0,0,0,17,22V77.83a12,12,0,0,0,12,12H70.43a12,12,0,0,0,12-12V22a12,12,0,0,0-12-12Z" class="cls-1"></path><path d="M65.57,55.44l-3.28-2.3L54.48,64.26,48.3,59.61l-5.36,7.26a1.3,1.3,0,0,1-1.07.54,1.32,1.32,0,0,1-1.07-2.12l7-9.43,6.13,4.62,6.24-8.87-3.23-2.27,9.63-4.47-1,10.57Zm-28-23a1.68,1.68,0,1,0,1.69,1.68,1.68,1.68,0,0,0-1.69-1.68Zm-.2,13.2L37,51.82a.38.38,0,0,1-.39.39.39.39,0,0,1-.4-.39l-.34-6.2H34.82l1.14-7-2.29,4.55a.4.4,0,1,1-.73-.31s1.68-4.53,2.09-5.37.83-1.36,2.39-1.36h.32c1.57,0,2,.52,2.39,1.36s2.09,5.37,2.09,5.37a.4.4,0,0,1-.21.52.4.4,0,0,1-.52-.21l-2.28-4.55,1.14,7h-1.1l-.34,6.2a.38.38,0,0,1-.39.39.39.39,0,0,1-.4-.39l-.36-6.2ZM52.85,34.09a1.68,1.68,0,1,1-1.68-1.68,1.68,1.68,0,0,1,1.68,1.68Zm.06,8.22.33,9.2a.66.66,0,0,1-.62.7h0a.65.65,0,0,1-.66-.61l-.75-7.11-.75,7.11a.66.66,0,0,1-.66.61h0a.66.66,0,0,1-.61-.7l.32-9.2-.11-3.65L47.26,43.2a.4.4,0,0,1-.52.21.39.39,0,0,1-.21-.52s1.45-4.52,1.86-5.37,1-1.35,2.62-1.35h.32c1.57,0,2.21.51,2.62,1.35s1.86,5.37,1.86,5.37a.4.4,0,0,1-.73.31l-2-4.54-.12,3.65Zm-7.5,1.36a1,1,0,1,1-1-1,1,1,0,0,1,1,1Zm-1,5-.47,3.23a.41.41,0,0,1-.39.27.42.42,0,0,1-.4-.29,1.76,1.76,0,0,1,0-.23l.19-4-.06-1.36c0-.46-.06-.32-.59-.64a8.52,8.52,0,0,1-1.5-1.8,1.22,1.22,0,0,1-.14-.28.26.26,0,0,1,.21-.31.29.29,0,0,1,.26.11c.07.08,1.13,1.48,1.91,1.62a3.27,3.27,0,0,1,.87-.12h.21a3.27,3.27,0,0,1,.87.12c.78-.14,1.84-1.54,1.91-1.62a.3.3,0,0,1,.26-.11.26.26,0,0,1,.21.31,1.22,1.22,0,0,1-.14.28,8.52,8.52,0,0,1-1.5,1.8c-.53.32-.53.18-.59.64l-.06,1.36.19,4a1.76,1.76,0,0,1,0,.23.42.42,0,0,1-.4.29.41.41,0,0,1-.39-.27l-.46-3.23" class="cls-2"></path></svg>